<?xml version="1.0" encoding="UTF-8" standalone="no"?>
<!-- Created with Inkscape (http://www.inkscape.org/) -->

<svg
   xmlns:dc="http://purl.org/dc/elements/1.1/"
   xmlns:cc="http://creativecommons.org/ns#"
   xmlns:rdf="http://www.w3.org/1999/02/22-rdf-syntax-ns#"
   xmlns:svg="http://www.w3.org/2000/svg"
   xmlns="http://www.w3.org/2000/svg"
   xmlns:sodipodi="http://sodipodi.sourceforge.net/DTD/sodipodi-0.dtd"
   xmlns:inkscape="http://www.inkscape.org/namespaces/inkscape"
   width="210mm"
   height="297mm"
   viewBox="0 0 210 297"
   version="1.1"
   id="svg8"
   inkscape:version="0.92.2 2405546, 2018-03-11"
   sodipodi:docname="fluiditynetwork.svg">
  <defs
     id="defs2">
    <inkscape:path-effect
       is_visible="true"
       id="path-effect892"
       effect="spiro" />
    <inkscape:path-effect
       effect="spiro"
       id="path-effect889"
       is_visible="true" />
    <inkscape:path-effect
       is_visible="true"
       id="path-effect886"
       effect="spiro" />
    <inkscape:path-effect
       effect="spiro"
       id="path-effect839"
       is_visible="true" />
    <inkscape:path-effect
       is_visible="true"
       id="path-effect827"
       effect="spiro" />
    <inkscape:path-effect
       effect="spiro"
       id="path-effect823"
       is_visible="true" />
  </defs>
  <sodipodi:namedview
     id="base"
     pagecolor="#ffffff"
     bordercolor="#666666"
     borderopacity="1.0"
     inkscape:pageopacity="0.0"
     inkscape:pageshadow="2"
     inkscape:zoom="0.35"
     inkscape:cx="549.05408"
     inkscape:cy="866.79506"
     inkscape:document-units="mm"
     inkscape:current-layer="layer1"
     showgrid="false"
     inkscape:window-width="1916"
     inkscape:window-height="1040"
     inkscape:window-x="0"
     inkscape:window-y="18"
     inkscape:window-maximized="0" />
  <metadata
     id="metadata5">
    <rdf:RDF>
      <cc:Work
         rdf:about="">
        <dc:format>image/svg+xml</dc:format>
        <dc:type
           rdf:resource="http://purl.org/dc/dcmitype/StillImage" />
        <dc:title></dc:title>
      </cc:Work>
    </rdf:RDF>
  </metadata>
  <g
     inkscape:label="Layer 1"
     inkscape:groupmode="layer"
     id="layer1">
    <g
       id="g872"
       style="fill:#45cefb;fill-opacity:1"
       transform="matrix(3.1651241,0,0,3.1651241,-74.49867,-98.467848)">
      <path
         id="path815"
         d="M 81.642855,75.505951 A 24.190477,24.190477 0 0 1 57.452377,99.696428 24.190477,24.190477 0 0 1 33.2619,75.505951 24.190477,24.190477 0 0 1 57.452377,51.315474 24.190477,24.190477 0 0 1 81.642855,75.505951 Z"
         style="opacity:1;fill:#45cefb;fill-opacity:1;stroke:#000000;stroke-width:0.5;stroke-miterlimit:4;stroke-dasharray:none;stroke-dashoffset:0;stroke-opacity:1"
         inkscape:connector-curvature="0" />
      <path
         sodipodi:nodetypes="csssc"
         inkscape:original-d="m 37.60863,61.827937 c 22.067741,-17.122312 12.299131,-0.849639 12.284227,-5.409783 -0.01627,-4.977882 7.685781,6.551321 11.528274,9.827381 3.842493,3.276058 7.433797,2.141601 11.150296,3.212796 3.716501,1.071197 2.394114,-6.047883 3.590774,-9.071427"
         inkscape:path-effect="#path-effect823"
         inkscape:connector-curvature="0"
         id="path821"
         d="m 37.60863,61.827937 c 1.026533,-2.218318 2.883025,-4.040635 5.120031,-5.025777 2.237007,-0.985143 4.834701,-1.124381 7.164196,-0.384006 2.433207,0.773338 4.486585,2.434368 6.275273,4.25622 1.788687,1.821851 3.377403,3.838914 5.253001,5.571161 1.50365,1.388727 3.212218,2.599804 5.147606,3.265984 1.935389,0.666179 4.119931,0.749771 6.00269,-0.05319 1.66375,-0.709556 3.022709,-2.104614 3.688412,-3.786391 0.665704,-1.681776 0.62973,-3.628996 -0.09764,-5.285036"
         style="fill:#45cefb;fill-opacity:1;fill-rule:evenodd;stroke:#000000;stroke-width:0.26458332px;stroke-linecap:butt;stroke-linejoin:miter;stroke-opacity:1" />
      <path
         style="fill:#45cefb;fill-opacity:1;fill-rule:evenodd;stroke:#000000;stroke-width:0.26458332px;stroke-linecap:butt;stroke-linejoin:miter;stroke-opacity:1"
         d="m 77.25181,89.184552 c -1.1164,2.237207 -3.060281,4.049607 -5.370072,5.006847 -2.309791,0.957241 -4.965849,1.051182 -7.337496,0.259517 -2.419769,-0.807728 -4.46304,-2.468455 -6.255021,-4.284086 -1.79198,-1.81563 -3.39313,-3.8191 -5.273253,-5.543295 -1.507848,-1.382794 -3.215823,-2.591737 -5.149977,-3.258651 -1.934154,-0.666913 -4.11733,-0.754183 -6.000323,0.04586 -1.665335,0.70756 -3.026077,2.102553 -3.692029,3.784959 -0.665952,1.682406 -0.628632,3.630798 0.101259,5.286468"
         id="path825"
         inkscape:connector-curvature="0"
         inkscape:path-effect="#path-effect827"
         inkscape:original-d="m 77.25181,89.184552 c -22.067741,17.122308 -12.722472,0.70622 -12.707568,5.266364 0.01627,4.977882 -7.685781,-6.551321 -11.528274,-9.827381 -3.842493,-3.276058 -7.433797,-2.141601 -11.1503,-3.212796 -3.7165,-1.071197 -2.39411,6.047883 -3.59077,9.071427"
         sodipodi:nodetypes="csssc" />
      <path
         sodipodi:nodetypes="ccssscsc"
         inkscape:original-d="m 33.427269,74.63188 c 2.173626,-1.543666 4.559603,-2.685468 6.7327,-4.228608 2.173099,-1.543137 3.402052,3.464518 5.10268,5.197173 1.700627,1.732656 4.661971,-4.158003 6.992559,-6.236607 2.330587,-2.078604 6.047882,5.669378 9.071427,8.504465 3.023547,2.835084 6.236872,-2.709095 9.354912,-4.063243 3.118038,-1.354151 2.646098,4.850428 3.96875,7.276041 1.322653,2.42561 11.74115,-12.859331 6.732701,-3.708893"
         inkscape:path-effect="#path-effect839"
         inkscape:connector-curvature="0"
         id="path837"
         d="m 33.427269,74.63188 c -0.23156,-0.852313 -0.181924,-1.778548 0.139397,-2.601233 0.321321,-0.822684 0.91259,-1.537371 1.660515,-2.007121 0.747925,-0.469749 1.648464,-0.692022 2.529067,-0.62423 0.880602,0.06779 1.736509,0.425284 2.403721,1.003976 0.951176,0.824983 1.472394,2.023844 2.153929,3.082543 0.340767,0.529349 0.731723,1.03482 1.224191,1.427003 0.492468,0.392184 1.095371,0.6663 1.72456,0.687627 0.407955,0.01383 0.816362,-0.07873 1.189008,-0.245322 0.372645,-0.166594 0.710354,-0.405918 1.008298,-0.68493 0.595888,-0.558024 1.028433,-1.265206 1.434144,-1.973635 0.405712,-0.708429 0.796321,-1.433594 1.328694,-2.052506 0.532373,-0.618912 1.229487,-1.132634 2.032415,-1.280214 0.544139,-0.100014 1.113668,-0.02595 1.629499,0.174068 0.515832,0.200021 0.979344,0.52261 1.374919,0.909405 0.791151,0.77359 1.303232,1.783047 1.764889,2.788649 0.461657,1.005602 0.894166,2.039259 1.567204,2.917543 0.336519,0.439142 0.73275,0.836441 1.194292,1.141513 0.461543,0.305073 0.990345,0.51599 1.540624,0.573287 0.8823,0.09187 1.767602,-0.214437 2.525176,-0.675929 0.757574,-0.461492 1.409992,-1.07302 2.075024,-1.660068 0.665032,-0.587048 1.359211,-1.160789 2.167576,-1.526083 0.404182,-0.182647 0.834996,-0.311164 1.276446,-0.354112 0.441451,-0.04295 0.893919,0.0012 1.31069,0.152949 0.670284,0.244041 1.219554,0.75638 1.609671,1.353578 0.390117,0.597198 0.633559,1.277975 0.827753,1.964361 0.194193,0.686386 0.342803,1.385766 0.562321,2.064477 0.219519,0.678711 0.514972,1.343451 0.969005,1.893625 0.574377,0.696001 1.396649,1.18305 2.283037,1.352293 0.886388,0.169242 1.830262,0.01941 2.620667,-0.416004 0.790404,-0.435416 1.421427,-1.153161 1.752035,-1.992819 0.330607,-0.839657 0.358326,-1.794948 0.07696,-2.652363"
         style="fill:#45cefb;fill-opacity:1;fill-rule:evenodd;stroke:#000000;stroke-width:0.26458332px;stroke-linecap:butt;stroke-linejoin:miter;stroke-opacity:1" />
    </g>
    <path
       sodipodi:nodetypes="csssc"
       inkscape:original-d="M 44.537175,97.225253 C 114.38431,43.031008 83.465453,94.536034 83.418283,80.102612 83.366783,64.347 107.74473,100.83836 119.90669,111.20749 c 12.16197,10.36913 23.52889,6.77844 35.29208,10.1689 11.76318,3.39047 7.57766,-19.1423 11.36525,-28.712193"
       inkscape:path-effect="#path-effect892"
       inkscape:connector-curvature="0"
       id="path877"
       d="m 44.537175,97.225253 c 3.249101,-7.021254 9.125131,-12.789115 16.205535,-15.907216 7.080403,-3.118101 15.30243,-3.558807 22.675573,-1.215425 7.7014,2.447711 14.200594,7.705077 19.862007,13.471463 5.66142,5.766387 10.6899,12.150635 16.6264,17.633415 4.75924,4.3955 10.16707,8.22871 16.29282,10.33725 6.12575,2.10854 13.04009,2.37312 18.99926,-0.16835 5.26597,-2.24583 9.56725,-6.66137 11.67428,-11.9844 2.10704,-5.32303 1.99318,-11.486219 -0.30903,-16.727793"
       style="fill:#002734;fill-opacity:1;fill-rule:evenodd;stroke:#000000;stroke-width:0.837439px;stroke-linecap:butt;stroke-linejoin:miter;stroke-opacity:1" />
    <path
       style="fill:#002734;fill-opacity:1;fill-rule:evenodd;stroke:#000000;stroke-width:0.837439px;stroke-linecap:butt;stroke-linejoin:miter;stroke-opacity:1"
       d="m 170.0129,183.81233 c -3.53354,7.08104 -9.68617,12.81751 -16.99695,15.8473 -7.31078,3.02978 -15.71753,3.32711 -23.22409,0.82139 -7.65887,-2.55656 -14.12607,-7.81297 -19.79791,-13.55967 -5.67184,-5.7467 -10.739676,-12.08793 -16.690497,-17.54522 -4.772526,-4.37672 -10.178481,-8.20317 -16.30032,-10.31403 -6.121838,-2.11086 -13.03186,-2.38708 -18.991768,0.14514 -5.270991,2.23952 -9.577907,6.65484 -11.685727,11.97987 -2.10782,5.32502 -1.989697,11.49192 0.320495,16.73232"
       id="path879"
       inkscape:connector-curvature="0"
       inkscape:path-effect="#path-effect889"
       inkscape:original-d="m 170.0129,183.81233 c -69.84714,54.19423 -40.2682,2.23526 -40.22104,16.66869 0.0514,15.75562 -24.32645,-20.73574 -36.488407,-31.10489 C 81.141482,159.007 69.774559,162.59771 58.011365,159.20724 46.248182,155.81676 50.43371,178.34954 46.646133,187.91943"
       sodipodi:nodetypes="csssc" />
    <path
       sodipodi:nodetypes="ccssscsc"
       inkscape:original-d="m 31.302785,137.7513 c 6.879797,-4.88588 14.431709,-8.49983 21.309831,-13.38406 6.878128,-4.88421 10.767917,10.96564 16.150616,16.4497 5.382695,5.48407 14.755721,-13.16059 22.132321,-19.73964 7.37659,-6.57904 19.142297,17.94428 28.712187,26.91768 9.56989,8.97341 19.74048,-8.57462 29.60946,-12.86065 9.86898,-4.28606 8.37523,15.3522 12.56158,23.02957 4.18636,7.67735 37.16221,-40.70138 21.30984,-11.73911"
       inkscape:path-effect="#path-effect886"
       inkscape:connector-curvature="0"
       id="path881"
       d="m 31.302785,137.7513 c -0.732913,-2.69767 -0.575808,-5.62932 0.441213,-8.23322 1.017021,-2.6039 2.888461,-4.86597 5.255736,-6.35278 2.367276,-1.48682 5.217594,-2.19034 8.004809,-1.97577 2.787215,0.21457 5.496265,1.34608 7.608073,3.17771 3.010591,2.61117 4.660311,6.40572 6.817453,9.75663 1.07857,1.67546 2.315992,3.27534 3.874716,4.51665 1.558724,1.24131 3.466987,2.10892 5.458447,2.17642 1.291228,0.0438 2.583887,-0.24918 3.763358,-0.77647 1.17947,-0.52729 2.24836,-1.28479 3.19139,-2.16789 1.88606,-1.76622 3.255119,-4.00454 4.539245,-6.24681 1.284126,-2.24226 2.520453,-4.5375 4.20548,-6.49643 1.685027,-1.95894 3.89148,-3.58493 6.432848,-4.05204 1.722268,-0.31656 3.524897,-0.0821 5.157567,0.55095 1.632669,0.63309 3.099741,1.65412 4.35179,2.87838 2.50409,2.4485 4.12489,5.64356 5.58609,8.82641 1.4612,3.18286 2.83014,6.45451 4.96039,9.23438 1.06513,1.38994 2.31925,2.64744 3.78009,3.61304 1.46084,0.96559 3.13456,1.63317 4.87626,1.81452 2.79259,0.29078 5.59468,-0.67872 7.9925,-2.13939 2.39781,-1.46068 4.4628,-3.39624 6.56771,-5.25432 2.1049,-1.85808 4.30207,-3.67404 6.86064,-4.83024 1.27929,-0.5781 2.64287,-0.98487 4.04012,-1.1208 1.39724,-0.13594 2.82936,0.004 4.14849,0.4841 2.12153,0.77242 3.86004,2.39404 5.09481,4.28424 1.23477,1.89021 2.00529,4.04495 2.61994,6.21745 0.61464,2.1725 1.08501,4.38612 1.77981,6.53432 0.6948,2.14821 1.62995,4.25219 3.06702,5.99356 1.81798,2.20293 4.42057,3.7445 7.2261,4.28018 2.80553,0.53567 5.79301,0.0614 8.29474,-1.31671 2.50173,-1.37814 4.49899,-3.6499 5.54541,-6.30752 1.04641,-2.65762 1.13414,-5.68123 0.24359,-8.39506"
       style="fill:#002734;fill-opacity:1;fill-rule:evenodd;stroke:#000000;stroke-width:0.837439px;stroke-linecap:butt;stroke-linejoin:miter;stroke-opacity:1" />
  </g>
  <g
     inkscape:groupmode="layer"
     id="layer2"
     inkscape:label="Layer 2" />
</svg>
